/* XPM */
/* artist: kenmi-art */
static char *_dead072ba9349b8d023a03e3791ac34h0C4GQKNAZCL5ZQa[] = {
/* columns rows colors chars-per-pixel */
"32 32 10 1 ",
"  c #B86F50",
"- c #D99359",
", c #E4A672",
". c #0E071B",
"X c #891E2B",
"o c #C42430",
"O c #FFA214",
"+ c #FFC825",
"@ c #F9E6CF",
"# c white",
/* pixels */
",,,,----,,,,,,----,,,,,,----,,,,",
",,--- ----,,---  ---,,---  ---,,",
",--     ------    ------     --,",
"--           ----             --",
"-                              -",
"-                              -",
"-                              -",
"-                              -",
",-                            -,",
",-                            -,",
",,-           ...            -,,",
",-           .ooX.            -,",
",-          ..oX.             -,",
"-          .####.  . .         -",
"-         .O##.#. .@.#.        -",
"-         .OO#.#@.@##@.        -",
"-          ..#######@.         -",
"-          .#@###.#@@@.        -",
",-         .@#@..#@@..        -,",
",-          .@#@#@..          -,",
",,-          .....           -,,",
",-          .O.++.            -,",
",-                            -,",
"-                              -",
"-                              -",
"-                              -",
"-                              -",
"-                              -",
"--                            --",
",-   ----      ----           -,",
",,--- ---,,---  ---,,,,--- ---,,",
",,,,----,,,,,----,,,,,,-----,,,,"
};