/* XPM */
/* based on artist: kenmi-art */
static char *b4d6a65f7c124745bb360045588b38e1QUcFX4lm8NZ6sPWu[] = {
/* columns rows colors chars-per-pixel */
"32 32 16 1 ",
"  c #B86F50",
". c #3F2832",
"X c #4E2528",
"o c #682728",
"O c #792E2F",
"+ c #743F39",
"@ c #AD3E3B",
"# c #91533B",
"$ c #B86F50",
"% c #C9594A",
"& c #DE726C",
"* c #E4A672",
"= c #0069AA",
"- c #0098DC",
"; c #00CDF9",
": c #0CF1FF",
/* pixels */
"                                ",
"               ..               ",
"              .$#.              ",
"             X%$#oX             ",
"           %%O.$#.oOO           ",
"         %%X%O.$#.o@XOO         ",
"        %XX&XO.$#.oXOOXO        ",
"       X&%&%XX.$#.XOXOO@X       ",
"     %%X&&%X%O.$#.oOXO@XOO      ",
"    %%%X%%X%%O.$#.oOOXX@OOOO    ",
"  %X%&X%X%X%XO.$#.oXOOOOOX@@XO  ",
"  &X%X%%XXX%%O.$#.oOOXX@XOOOX@  ",
" %%X&XX&%XXX%O.$#.oOXXOO@XX@XOO ",
"  &&X%%&&.++..+.....++.@OXOXO@  ",
" %%X&XX%&.++..++..++.@O@XX@@XOO ",
"  XX&%%X.++.#..$#+.+.++.XOOX@X  ",
"  %X&&X%%%.++..$#+.+.#+.OOX0@X  ",
" %%X&X%.+.+#+..$#+.+.++.OX@XX0O ",
"    .+...#+.+#.$#+.+..+.++@.,   ",
"    .$#+.$$+...$#+.#######$.    ",
"    .$#+.##$#$#$#+...+..+#$.    ",
"    .$#+........$#+.+.+.+#$.    ",
"    .$#+.+####..$#+#######$.    ",
"    .$#+.+#.+.+.$#+..+#.+#$.    ",
"    .$#+.+#.+.#.$#+..+#.+#$.    ",
"    .$#+.+#.+.+.$#+..+#.+#$.    ",
"    .$#+.+#.+.#.$#+..+#.+#$.    ",
"    .$#+.+#.+.+.$#######+#$.    ",
"    .$#+.+.    .+...+.+.+#$.    ",
"    ..         ..        ..     ",
"                                ",
"                                "
};
