/* XPM */
/* artist: pebonius */
static char *_99a64f7ef0b4fc6b74191a8a55ceb2bBPwksXxh0TnxtNEH[] = {
/* columns rows colors chars-per-pixel */
"32 32 14 1 ",
"  c #B86F50",
". c #0C0816",
"X c #26323C",
"o c #4C4138",
"O c #70503A",
"+ c #2C4B73",
"@ c #746658",
"# c #555461",
"$ c #845A78",
"% c #B67C74",
"& c #558DDE",
"* c #939388",
"= c #CFB690",
"- c #F0FAFF",
/* pixels */
" ..      ..#$$$$$$$$#...        ",
" .$......$$$$$$$$$$$$$$...      ",
"  ..$.$$$$.#$$$$$$$$$$$$$...    ",
"    ..$$$$...#$$$$$$$$$$$$$$... ",
"    .$$$..@==...........$$$$$$$.",
"   ..$$.@@@.======@.#####$$$$$. ",
"   .$$...@==.........##$$$$$..  ",
"   .$$.#..==@*...*.@.##$$....$$ ",
"   .$.#...===%-..-=@..#####$$$. ",
"   ..####.=========@@@..#$$...  ",
" .  .###.%======%%==@@=.....    ",
".#..###..=============...ooo.   ",
" .#####.===========....o..ooo.  ",
"  .....o.=========.@.++.o...o.  ",
"     .o...O%=====.@@.++.o.+&..  ",
"     ...o&.====..@@.+++.@.&&&.  ",
"     .&.O.&....@@@.++&&.@.&&&.. ",
"    .&&.O.&&++....++&&&.O.&.+&. ",
"    .&&XO.&&&++++++&&&&.o..&&&. ",
"    .+&&o.&&&&++++&&&&&.o..&&+. ",
"    .+++..&&&&&++&&&&&....=.&+. ",
"    .X+++.&&&&&&&&&&&&.====.&+. ",
"    .X+++.&&&&&&&&&&&&..@==.+.. ",
"    .&..+.+&&&&&&&&&&&..=@@.... ",
"    .&++++..++&&&&&+++X.@@@.    ",
"     .&+++..X.......XX......    ",
"     .@@@..X..XXXXXXX.XX.XX..   ",
"     .=@...XX+.......X+X.ooo.   ",
"      ... ...+++++++++XX.Xoo..  ",
"          .Xo.++++++X.....X#X.  ",
"          .#oX.......    ..X#.  ",
"          .....           ....  "
};
