/* XPM */
/* based on artist: kenmi-art */
static char *_3a350ebe8e5467b86fc1e1217ebaecfkv3Y55VqHzMgHBJi[] = {
/* columns rows colors chars-per-pixel */
"32 32 10 1 ",
"  c #B86F50",
". c #091B15",
"X c #3F2832",
"o c #743F39",
"O c #134C4C",
"+ c #1E6F50",
"@ c #91533B",
"# c #B86F50",
"$ c #33984B",
"% c #5AC54F",
/* pixels */
"             ..                 ",
"          . .  .$.              ",
"        .$.%$$.$$%$$.$$.        ",
"      ..$$.%%$%$%$$%.$$..       ",
"    .%$.$%%%$%%%$%%%%...%%.     ",
"  .$$.$%%$$%%%%%%%%%%%%$%%%$.   ",
"   .$$%%$%%%%%%%%%%%%%%%%%$$%%. ",
"  .$$%%$$%%%%%%%%%%%%%%%%%%$$%. ",
" ..$$$$$$$%%%%%%%%%%$%%%%%%%$.. ",
" .$$%%%%%%%%%%%%%$%$$$$%%%$$$$. ",
" ..+$$%%$%%$$%$$%%%$%%%%%$$$..  ",
"  .$$$$$$$$%%$$$$$%$$%%%$$$+++. ",
" .+$++$$$$+$$$$$$$$$$$$$+$$$+.  ",
" .+++$$++$$+$$$$$$$$$+$$$+$..   ",
"  .++$$+$$+$$$+$$$+$$++$$+..    ",
"  ...+++$$+$$+$$+$$$++$$+++O.   ",
"   .O++O+++++$$++$$$+$$+++OO.   ",
"     .OOO.+++O+O+O+O++O.0O.     ",
"      ..OO.O+O++O+O+O.OO..      ",
"        ..OO.OOO.OO.OO.         ",
"         .O.OX.O.X.OO.          ",
"          ..OO.X.XX.            ",
"           .XXoXXoX             ",
"            XoXoX@X             ",
"            X@o#@ooX            ",
"            X@oX@o@@X           ",
"           X#@@XoXo@#X          ",
"          X#@@Xo@#XXX@#X        ",
"          X#oXXo##X Xo@#X       ",
"         X#oX  X@#X             ",
"               XX@#X            ",
"                                "
};