/* XPM */
static char *_3a350ebe8e5467b86fc1e1217ebaecfkv3Y55VqHzMgHBJi[] = {
/* columns rows colors chars-per-pixel */
"91 21 2 1",
"  c #000000",
"X c #FF0000",
/* pixels */
"                                                                                           ",
"                                                                                           ",
"                                                                                           ",
"                                                                                           ",
"                                                                                           ",
"                                                                                           ",
"                                                                                           ",
"        XX     XX XXXXXXXXX XX     XX        XX      XX      XX XXX XXX     XX  XXX        ",
"         XX   XX  XXXXXXXXX XX     XX        XX     XXXX     XX XXX XXXX    XX  XXX        ",
"          XX XX   XX     XX XX     XX         XX   XX  XX   XX  XXX XX XX   XX  XXX        ",
"           XXX    XX     XX XX     XX         XX   XX  XX   XX  XXX XX  XX  XX  XXX        ",
"           XXX    XX     XX XX     XX          XX XX    XX XX   XXX XX  XX  XX  XXX        ",
"           XXX    XX     XX XX     XX          XX XX    XX XX   XXX XX   XX XX             ",
"           XXX    XXXXXXXXX XXXXXXXXX           XXX      XXX    XXX XX    XXXX  XXX        ",
"           XXX    XXXXXXXXX XXXXXXXXX           XXX      XXX    XXX XX     XXX  XXX        ",
"                                                                                           ",
"                                                                                           ",
"                                                                                           ",
"                                                                                           ",
"                                                                                           ",
"                                                                                           ",
"                                                                                           "
};